<mxfile host="" modified="2023-11-02T05:54:44.501Z" agent="Mozilla/5.0 (Macintosh; Intel Mac OS X 10.15; rv:109.0) Gecko/20100101 Firefox/115.0" etag="Eu4NfYZu14EYaS8ViZqO" version="21.7.4" type="device">
  <diagram name="Page-1" id="n98VVvcdOwi-wFL1UZqn">
    <mxGraphModel dx="2156" dy="1664" grid="1" gridSize="10" guides="1" tooltips="1" connect="1" arrows="1" fold="1" page="1" pageScale="1" pageWidth="850" pageHeight="1100" math="0" shadow="0">
      <root>
        <mxCell id="0" />
        <mxCell id="1" parent="0" />
        <mxCell id="0dlsmf1DKYp3GTuO4sji-1" value="VPC" style="points=[[0,0],[0.25,0],[0.5,0],[0.75,0],[1,0],[1,0.25],[1,0.5],[1,0.75],[1,1],[0.75,1],[0.5,1],[0.25,1],[0,1],[0,0.75],[0,0.5],[0,0.25]];outlineConnect=0;gradientColor=none;html=1;whiteSpace=wrap;fontSize=12;fontStyle=0;container=1;pointerEvents=0;collapsible=0;recursiveResize=0;shape=mxgraph.aws4.group;grIcon=mxgraph.aws4.group_vpc;strokeColor=#248814;fillColor=none;verticalAlign=top;align=left;spacingLeft=30;fontColor=#AAB7B8;dashed=0;" vertex="1" parent="1">
          <mxGeometry x="60" y="150" width="470" height="490" as="geometry" />
        </mxCell>
        <mxCell id="0dlsmf1DKYp3GTuO4sji-4" value="Private subnet" style="points=[[0,0],[0.25,0],[0.5,0],[0.75,0],[1,0],[1,0.25],[1,0.5],[1,0.75],[1,1],[0.75,1],[0.5,1],[0.25,1],[0,1],[0,0.75],[0,0.5],[0,0.25]];outlineConnect=0;gradientColor=none;html=1;whiteSpace=wrap;fontSize=12;fontStyle=0;container=1;pointerEvents=0;collapsible=0;recursiveResize=0;shape=mxgraph.aws4.group;grIcon=mxgraph.aws4.group_security_group;grStroke=0;strokeColor=#147EBA;fillColor=#E6F2F8;verticalAlign=top;align=left;spacingLeft=30;fontColor=#147EBA;dashed=0;" vertex="1" parent="0dlsmf1DKYp3GTuO4sji-1">
          <mxGeometry x="20" y="180" width="145" height="130" as="geometry" />
        </mxCell>
        <mxCell id="0dlsmf1DKYp3GTuO4sji-50" value="" style="sketch=0;outlineConnect=0;fontColor=#232F3E;gradientColor=none;fillColor=#8C4FFF;strokeColor=none;dashed=0;verticalLabelPosition=bottom;verticalAlign=top;align=center;html=1;fontSize=12;fontStyle=0;aspect=fixed;pointerEvents=1;shape=mxgraph.aws4.elastic_network_interface;" vertex="1" parent="0dlsmf1DKYp3GTuO4sji-4">
          <mxGeometry x="41.120000000000005" y="60" width="41.75" height="41.75" as="geometry" />
        </mxCell>
        <mxCell id="0dlsmf1DKYp3GTuO4sji-71" value="&lt;div&gt;Elastic Network&amp;nbsp;&lt;/div&gt;&lt;div&gt;Interface&lt;/div&gt;" style="text;html=1;strokeColor=none;fillColor=none;align=center;verticalAlign=middle;whiteSpace=wrap;rounded=0;" vertex="1" parent="0dlsmf1DKYp3GTuO4sji-4">
          <mxGeometry x="-13.01" y="30" width="150" height="30" as="geometry" />
        </mxCell>
        <mxCell id="0dlsmf1DKYp3GTuO4sji-5" value="Private subnet" style="points=[[0,0],[0.25,0],[0.5,0],[0.75,0],[1,0],[1,0.25],[1,0.5],[1,0.75],[1,1],[0.75,1],[0.5,1],[0.25,1],[0,1],[0,0.75],[0,0.5],[0,0.25]];outlineConnect=0;gradientColor=none;html=1;whiteSpace=wrap;fontSize=12;fontStyle=0;container=1;pointerEvents=0;collapsible=0;recursiveResize=0;shape=mxgraph.aws4.group;grIcon=mxgraph.aws4.group_security_group;grStroke=0;strokeColor=#147EBA;fillColor=#E6F2F8;verticalAlign=top;align=left;spacingLeft=30;fontColor=#147EBA;dashed=0;" vertex="1" parent="0dlsmf1DKYp3GTuO4sji-1">
          <mxGeometry x="170" y="180" width="130" height="130" as="geometry" />
        </mxCell>
        <mxCell id="0dlsmf1DKYp3GTuO4sji-22" value="" style="sketch=0;points=[[0,0,0],[0.25,0,0],[0.5,0,0],[0.75,0,0],[1,0,0],[0,1,0],[0.25,1,0],[0.5,1,0],[0.75,1,0],[1,1,0],[0,0.25,0],[0,0.5,0],[0,0.75,0],[1,0.25,0],[1,0.5,0],[1,0.75,0]];outlineConnect=0;fontColor=#232F3E;fillColor=#ED7100;strokeColor=#ffffff;dashed=0;verticalLabelPosition=bottom;verticalAlign=top;align=center;html=1;fontSize=12;fontStyle=0;aspect=fixed;shape=mxgraph.aws4.resourceIcon;resIcon=mxgraph.aws4.ec2;" vertex="1" parent="0dlsmf1DKYp3GTuO4sji-5">
          <mxGeometry x="50" y="70" width="49.88" height="49.88" as="geometry" />
        </mxCell>
        <mxCell id="0dlsmf1DKYp3GTuO4sji-23" value="Bastion Host with AWS SSM" style="text;html=1;strokeColor=none;fillColor=none;align=center;verticalAlign=middle;whiteSpace=wrap;rounded=0;" vertex="1" parent="0dlsmf1DKYp3GTuO4sji-5">
          <mxGeometry x="17.5" y="40" width="95" height="30" as="geometry" />
        </mxCell>
        <mxCell id="0dlsmf1DKYp3GTuO4sji-6" value="Private subnet" style="points=[[0,0],[0.25,0],[0.5,0],[0.75,0],[1,0],[1,0.25],[1,0.5],[1,0.75],[1,1],[0.75,1],[0.5,1],[0.25,1],[0,1],[0,0.75],[0,0.5],[0,0.25]];outlineConnect=0;gradientColor=none;html=1;whiteSpace=wrap;fontSize=12;fontStyle=0;container=1;pointerEvents=0;collapsible=0;recursiveResize=0;shape=mxgraph.aws4.group;grIcon=mxgraph.aws4.group_security_group;grStroke=0;strokeColor=#147EBA;fillColor=#E6F2F8;verticalAlign=top;align=left;spacingLeft=30;fontColor=#147EBA;dashed=0;" vertex="1" parent="0dlsmf1DKYp3GTuO4sji-1">
          <mxGeometry x="320" y="180" width="130" height="130" as="geometry" />
        </mxCell>
        <mxCell id="0dlsmf1DKYp3GTuO4sji-26" value="" style="sketch=0;points=[[0,0,0],[0.25,0,0],[0.5,0,0],[0.75,0,0],[1,0,0],[0,1,0],[0.25,1,0],[0.5,1,0],[0.75,1,0],[1,1,0],[0,0.25,0],[0,0.5,0],[0,0.75,0],[1,0.25,0],[1,0.5,0],[1,0.75,0]];outlineConnect=0;fontColor=#232F3E;fillColor=#ED7100;strokeColor=#ffffff;dashed=0;verticalLabelPosition=bottom;verticalAlign=top;align=center;html=1;fontSize=12;fontStyle=0;aspect=fixed;shape=mxgraph.aws4.resourceIcon;resIcon=mxgraph.aws4.lambda;" vertex="1" parent="0dlsmf1DKYp3GTuO4sji-6">
          <mxGeometry x="70" y="26.5" width="47" height="47" as="geometry" />
        </mxCell>
        <mxCell id="0dlsmf1DKYp3GTuO4sji-81" value="" style="sketch=0;points=[[0,0,0],[0.25,0,0],[0.5,0,0],[0.75,0,0],[1,0,0],[0,1,0],[0.25,1,0],[0.5,1,0],[0.75,1,0],[1,1,0],[0,0.25,0],[0,0.5,0],[0,0.75,0],[1,0.25,0],[1,0.5,0],[1,0.75,0]];outlineConnect=0;fontColor=#232F3E;fillColor=#ED7100;strokeColor=#ffffff;dashed=0;verticalLabelPosition=bottom;verticalAlign=top;align=center;html=1;fontSize=12;fontStyle=0;aspect=fixed;shape=mxgraph.aws4.resourceIcon;resIcon=mxgraph.aws4.lambda;" vertex="1" parent="0dlsmf1DKYp3GTuO4sji-6">
          <mxGeometry x="70" y="78" width="47" height="47" as="geometry" />
        </mxCell>
        <mxCell id="0dlsmf1DKYp3GTuO4sji-27" value="Inference Lambda" style="text;html=1;strokeColor=none;fillColor=none;align=center;verticalAlign=middle;whiteSpace=wrap;rounded=0;" vertex="1" parent="0dlsmf1DKYp3GTuO4sji-6">
          <mxGeometry y="35" width="60" height="30" as="geometry" />
        </mxCell>
        <mxCell id="0dlsmf1DKYp3GTuO4sji-49" value="Data insert lambda" style="text;html=1;strokeColor=none;fillColor=none;align=center;verticalAlign=middle;whiteSpace=wrap;rounded=0;" vertex="1" parent="0dlsmf1DKYp3GTuO4sji-6">
          <mxGeometry y="86.5" width="60" height="30" as="geometry" />
        </mxCell>
        <mxCell id="0dlsmf1DKYp3GTuO4sji-7" value="Isolated subnet" style="points=[[0,0],[0.25,0],[0.5,0],[0.75,0],[1,0],[1,0.25],[1,0.5],[1,0.75],[1,1],[0.75,1],[0.5,1],[0.25,1],[0,1],[0,0.75],[0,0.5],[0,0.25]];outlineConnect=0;gradientColor=none;html=1;whiteSpace=wrap;fontSize=12;fontStyle=0;container=1;pointerEvents=0;collapsible=0;recursiveResize=0;shape=mxgraph.aws4.group;grIcon=mxgraph.aws4.group_security_group;grStroke=0;strokeColor=#147EBA;fillColor=#E6F2F8;verticalAlign=top;align=left;spacingLeft=30;fontColor=#147EBA;dashed=0;" vertex="1" parent="0dlsmf1DKYp3GTuO4sji-1">
          <mxGeometry x="20" y="320" width="140" height="130" as="geometry" />
        </mxCell>
        <mxCell id="0dlsmf1DKYp3GTuO4sji-17" value="" style="sketch=0;outlineConnect=0;fontColor=#232F3E;gradientColor=none;fillColor=#C925D1;strokeColor=none;dashed=0;verticalLabelPosition=bottom;verticalAlign=top;align=center;html=1;fontSize=12;fontStyle=0;aspect=fixed;pointerEvents=1;shape=mxgraph.aws4.rds_postgresql_instance_alt;" vertex="1" parent="0dlsmf1DKYp3GTuO4sji-7">
          <mxGeometry x="37" y="30" width="50" height="50" as="geometry" />
        </mxCell>
        <mxCell id="0dlsmf1DKYp3GTuO4sji-19" value="Aurora Serverless PostgreSQL Writer" style="text;html=1;strokeColor=none;fillColor=none;align=center;verticalAlign=middle;whiteSpace=wrap;rounded=0;" vertex="1" parent="0dlsmf1DKYp3GTuO4sji-7">
          <mxGeometry x="8" y="90" width="108" height="30" as="geometry" />
        </mxCell>
        <mxCell id="0dlsmf1DKYp3GTuO4sji-58" value="pgVector" style="text;html=1;strokeColor=none;fillColor=none;align=center;verticalAlign=middle;whiteSpace=wrap;rounded=0;" vertex="1" parent="0dlsmf1DKYp3GTuO4sji-7">
          <mxGeometry x="32" y="50" width="60" height="30" as="geometry" />
        </mxCell>
        <mxCell id="0dlsmf1DKYp3GTuO4sji-9" value="Isolated subnet" style="points=[[0,0],[0.25,0],[0.5,0],[0.75,0],[1,0],[1,0.25],[1,0.5],[1,0.75],[1,1],[0.75,1],[0.5,1],[0.25,1],[0,1],[0,0.75],[0,0.5],[0,0.25]];outlineConnect=0;gradientColor=none;html=1;whiteSpace=wrap;fontSize=12;fontStyle=0;container=1;pointerEvents=0;collapsible=0;recursiveResize=0;shape=mxgraph.aws4.group;grIcon=mxgraph.aws4.group_security_group;grStroke=0;strokeColor=#147EBA;fillColor=#E6F2F8;verticalAlign=top;align=left;spacingLeft=30;fontColor=#147EBA;dashed=0;" vertex="1" parent="0dlsmf1DKYp3GTuO4sji-1">
          <mxGeometry x="170" y="320" width="140" height="130" as="geometry" />
        </mxCell>
        <mxCell id="0dlsmf1DKYp3GTuO4sji-18" value="" style="sketch=0;outlineConnect=0;fontColor=#232F3E;gradientColor=none;fillColor=#C925D1;strokeColor=none;dashed=0;verticalLabelPosition=bottom;verticalAlign=top;align=center;html=1;fontSize=12;fontStyle=0;aspect=fixed;pointerEvents=1;shape=mxgraph.aws4.rds_postgresql_instance_alt;" vertex="1" parent="0dlsmf1DKYp3GTuO4sji-9">
          <mxGeometry x="45" y="30" width="50" height="50" as="geometry" />
        </mxCell>
        <mxCell id="0dlsmf1DKYp3GTuO4sji-20" value="Aurora Serverless PostgreSQL Reader" style="text;html=1;strokeColor=none;fillColor=none;align=center;verticalAlign=middle;whiteSpace=wrap;rounded=0;" vertex="1" parent="0dlsmf1DKYp3GTuO4sji-9">
          <mxGeometry x="0.5" y="90" width="129" height="30" as="geometry" />
        </mxCell>
        <mxCell id="0dlsmf1DKYp3GTuO4sji-76" value="pgVector" style="text;html=1;strokeColor=none;fillColor=none;align=center;verticalAlign=middle;whiteSpace=wrap;rounded=0;" vertex="1" parent="0dlsmf1DKYp3GTuO4sji-9">
          <mxGeometry x="40" y="50" width="60" height="30" as="geometry" />
        </mxCell>
        <mxCell id="0dlsmf1DKYp3GTuO4sji-10" value="Isolated subnet" style="points=[[0,0],[0.25,0],[0.5,0],[0.75,0],[1,0],[1,0.25],[1,0.5],[1,0.75],[1,1],[0.75,1],[0.5,1],[0.25,1],[0,1],[0,0.75],[0,0.5],[0,0.25]];outlineConnect=0;gradientColor=none;html=1;whiteSpace=wrap;fontSize=12;fontStyle=0;container=1;pointerEvents=0;collapsible=0;recursiveResize=0;shape=mxgraph.aws4.group;grIcon=mxgraph.aws4.group_security_group;grStroke=0;strokeColor=#147EBA;fillColor=#E6F2F8;verticalAlign=top;align=left;spacingLeft=30;fontColor=#147EBA;dashed=0;" vertex="1" parent="0dlsmf1DKYp3GTuO4sji-1">
          <mxGeometry x="320" y="320" width="130" height="130" as="geometry" />
        </mxCell>
        <mxCell id="0dlsmf1DKYp3GTuO4sji-11" value="Public subnet" style="points=[[0,0],[0.25,0],[0.5,0],[0.75,0],[1,0],[1,0.25],[1,0.5],[1,0.75],[1,1],[0.75,1],[0.5,1],[0.25,1],[0,1],[0,0.75],[0,0.5],[0,0.25]];outlineConnect=0;gradientColor=none;html=1;whiteSpace=wrap;fontSize=12;fontStyle=0;container=1;pointerEvents=0;collapsible=0;recursiveResize=0;shape=mxgraph.aws4.group;grIcon=mxgraph.aws4.group_security_group;grStroke=0;strokeColor=#248814;fillColor=#E9F3E6;verticalAlign=top;align=left;spacingLeft=30;fontColor=#248814;dashed=0;" vertex="1" parent="0dlsmf1DKYp3GTuO4sji-1">
          <mxGeometry x="20" y="40" width="130" height="130" as="geometry" />
        </mxCell>
        <mxCell id="0dlsmf1DKYp3GTuO4sji-14" value="" style="sketch=0;outlineConnect=0;fontColor=#232F3E;gradientColor=none;fillColor=#8C4FFF;strokeColor=none;dashed=0;verticalLabelPosition=bottom;verticalAlign=top;align=center;html=1;fontSize=12;fontStyle=0;aspect=fixed;pointerEvents=1;shape=mxgraph.aws4.nat_gateway;" vertex="1" parent="0dlsmf1DKYp3GTuO4sji-11">
          <mxGeometry x="30" y="38" width="54" height="54" as="geometry" />
        </mxCell>
        <mxCell id="0dlsmf1DKYp3GTuO4sji-15" value="NAT Gateway" style="text;html=1;strokeColor=none;fillColor=none;align=center;verticalAlign=middle;whiteSpace=wrap;rounded=0;" vertex="1" parent="0dlsmf1DKYp3GTuO4sji-11">
          <mxGeometry x="27" y="94" width="60" height="30" as="geometry" />
        </mxCell>
        <mxCell id="0dlsmf1DKYp3GTuO4sji-12" value="Public subnet" style="points=[[0,0],[0.25,0],[0.5,0],[0.75,0],[1,0],[1,0.25],[1,0.5],[1,0.75],[1,1],[0.75,1],[0.5,1],[0.25,1],[0,1],[0,0.75],[0,0.5],[0,0.25]];outlineConnect=0;gradientColor=none;html=1;whiteSpace=wrap;fontSize=12;fontStyle=0;container=1;pointerEvents=0;collapsible=0;recursiveResize=0;shape=mxgraph.aws4.group;grIcon=mxgraph.aws4.group_security_group;grStroke=0;strokeColor=#248814;fillColor=#E9F3E6;verticalAlign=top;align=left;spacingLeft=30;fontColor=#248814;dashed=0;" vertex="1" parent="0dlsmf1DKYp3GTuO4sji-1">
          <mxGeometry x="170" y="40" width="130" height="130" as="geometry" />
        </mxCell>
        <mxCell id="0dlsmf1DKYp3GTuO4sji-13" value="Public subnet" style="points=[[0,0],[0.25,0],[0.5,0],[0.75,0],[1,0],[1,0.25],[1,0.5],[1,0.75],[1,1],[0.75,1],[0.5,1],[0.25,1],[0,1],[0,0.75],[0,0.5],[0,0.25]];outlineConnect=0;gradientColor=none;html=1;whiteSpace=wrap;fontSize=12;fontStyle=0;container=1;pointerEvents=0;collapsible=0;recursiveResize=0;shape=mxgraph.aws4.group;grIcon=mxgraph.aws4.group_security_group;grStroke=0;strokeColor=#248814;fillColor=#E9F3E6;verticalAlign=top;align=left;spacingLeft=30;fontColor=#248814;dashed=0;" vertex="1" parent="0dlsmf1DKYp3GTuO4sji-1">
          <mxGeometry x="320" y="40" width="130" height="130" as="geometry" />
        </mxCell>
        <mxCell id="0dlsmf1DKYp3GTuO4sji-52" style="edgeStyle=orthogonalEdgeStyle;rounded=0;orthogonalLoop=1;jettySize=auto;html=1;" edge="1" parent="0dlsmf1DKYp3GTuO4sji-1" source="0dlsmf1DKYp3GTuO4sji-50" target="0dlsmf1DKYp3GTuO4sji-17">
          <mxGeometry relative="1" as="geometry">
            <Array as="points">
              <mxPoint x="160" y="261" />
              <mxPoint x="160" y="370" />
            </Array>
          </mxGeometry>
        </mxCell>
        <mxCell id="0dlsmf1DKYp3GTuO4sji-53" style="edgeStyle=orthogonalEdgeStyle;rounded=0;orthogonalLoop=1;jettySize=auto;html=1;" edge="1" parent="0dlsmf1DKYp3GTuO4sji-1" source="0dlsmf1DKYp3GTuO4sji-50" target="0dlsmf1DKYp3GTuO4sji-18">
          <mxGeometry relative="1" as="geometry">
            <Array as="points">
              <mxPoint x="160" y="261" />
              <mxPoint x="160" y="370" />
            </Array>
          </mxGeometry>
        </mxCell>
        <mxCell id="0dlsmf1DKYp3GTuO4sji-75" style="edgeStyle=orthogonalEdgeStyle;rounded=0;orthogonalLoop=1;jettySize=auto;html=1;" edge="1" parent="0dlsmf1DKYp3GTuO4sji-1" source="0dlsmf1DKYp3GTuO4sji-22" target="0dlsmf1DKYp3GTuO4sji-18">
          <mxGeometry relative="1" as="geometry">
            <Array as="points">
              <mxPoint x="245" y="340" />
              <mxPoint x="245" y="340" />
            </Array>
          </mxGeometry>
        </mxCell>
        <mxCell id="0dlsmf1DKYp3GTuO4sji-88" style="edgeStyle=orthogonalEdgeStyle;rounded=0;orthogonalLoop=1;jettySize=auto;html=1;entryX=0.5;entryY=1;entryDx=0;entryDy=0;" edge="1" parent="0dlsmf1DKYp3GTuO4sji-1" source="0dlsmf1DKYp3GTuO4sji-81" target="0dlsmf1DKYp3GTuO4sji-58">
          <mxGeometry relative="1" as="geometry">
            <Array as="points">
              <mxPoint x="380" y="282" />
              <mxPoint x="380" y="410" />
              <mxPoint x="82" y="410" />
            </Array>
          </mxGeometry>
        </mxCell>
        <mxCell id="0dlsmf1DKYp3GTuO4sji-89" style="edgeStyle=orthogonalEdgeStyle;rounded=0;orthogonalLoop=1;jettySize=auto;html=1;entryX=0.5;entryY=1;entryDx=0;entryDy=0;" edge="1" parent="0dlsmf1DKYp3GTuO4sji-1" source="0dlsmf1DKYp3GTuO4sji-81" target="0dlsmf1DKYp3GTuO4sji-76">
          <mxGeometry relative="1" as="geometry">
            <Array as="points">
              <mxPoint x="380" y="282" />
              <mxPoint x="380" y="410" />
              <mxPoint x="240" y="410" />
            </Array>
          </mxGeometry>
        </mxCell>
        <mxCell id="0dlsmf1DKYp3GTuO4sji-90" style="edgeStyle=orthogonalEdgeStyle;rounded=0;orthogonalLoop=1;jettySize=auto;html=1;entryX=0.5;entryY=1;entryDx=0;entryDy=0;" edge="1" parent="0dlsmf1DKYp3GTuO4sji-1" source="0dlsmf1DKYp3GTuO4sji-26" target="0dlsmf1DKYp3GTuO4sji-76">
          <mxGeometry relative="1" as="geometry">
            <Array as="points">
              <mxPoint x="380" y="230" />
              <mxPoint x="380" y="410" />
              <mxPoint x="240" y="410" />
            </Array>
          </mxGeometry>
        </mxCell>
        <mxCell id="0dlsmf1DKYp3GTuO4sji-51" style="edgeStyle=orthogonalEdgeStyle;rounded=0;orthogonalLoop=1;jettySize=auto;html=1;" edge="1" parent="1" source="0dlsmf1DKYp3GTuO4sji-24" target="0dlsmf1DKYp3GTuO4sji-50">
          <mxGeometry relative="1" as="geometry" />
        </mxCell>
        <mxCell id="0dlsmf1DKYp3GTuO4sji-92" style="edgeStyle=orthogonalEdgeStyle;rounded=0;orthogonalLoop=1;jettySize=auto;html=1;entryX=0;entryY=0.5;entryDx=0;entryDy=0;entryPerimeter=0;" edge="1" parent="1" source="0dlsmf1DKYp3GTuO4sji-24" target="0dlsmf1DKYp3GTuO4sji-66">
          <mxGeometry relative="1" as="geometry">
            <Array as="points">
              <mxPoint x="6" y="116" />
            </Array>
          </mxGeometry>
        </mxCell>
        <mxCell id="0dlsmf1DKYp3GTuO4sji-106" style="edgeStyle=orthogonalEdgeStyle;rounded=0;orthogonalLoop=1;jettySize=auto;html=1;" edge="1" parent="1" source="0dlsmf1DKYp3GTuO4sji-24" target="0dlsmf1DKYp3GTuO4sji-104">
          <mxGeometry relative="1" as="geometry">
            <Array as="points">
              <mxPoint x="6" y="62" />
            </Array>
          </mxGeometry>
        </mxCell>
        <mxCell id="0dlsmf1DKYp3GTuO4sji-111" style="edgeStyle=orthogonalEdgeStyle;rounded=0;orthogonalLoop=1;jettySize=auto;html=1;" edge="1" parent="1" source="0dlsmf1DKYp3GTuO4sji-24" target="0dlsmf1DKYp3GTuO4sji-108">
          <mxGeometry relative="1" as="geometry">
            <Array as="points">
              <mxPoint x="6" y="2" />
            </Array>
          </mxGeometry>
        </mxCell>
        <mxCell id="0dlsmf1DKYp3GTuO4sji-24" value="" style="sketch=0;outlineConnect=0;fontColor=#232F3E;gradientColor=none;fillColor=#01A88D;strokeColor=none;dashed=0;verticalLabelPosition=bottom;verticalAlign=top;align=center;html=1;fontSize=12;fontStyle=0;aspect=fixed;pointerEvents=1;shape=mxgraph.aws4.sagemaker_notebook;" vertex="1" parent="1">
          <mxGeometry x="-20.1" y="380.93" width="52.2" height="59.88" as="geometry" />
        </mxCell>
        <mxCell id="0dlsmf1DKYp3GTuO4sji-82" style="edgeStyle=orthogonalEdgeStyle;rounded=0;orthogonalLoop=1;jettySize=auto;html=1;" edge="1" parent="1" source="0dlsmf1DKYp3GTuO4sji-54" target="0dlsmf1DKYp3GTuO4sji-26">
          <mxGeometry relative="1" as="geometry" />
        </mxCell>
        <mxCell id="0dlsmf1DKYp3GTuO4sji-84" style="edgeStyle=orthogonalEdgeStyle;rounded=0;orthogonalLoop=1;jettySize=auto;html=1;entryX=1;entryY=0.5;entryDx=0;entryDy=0;entryPerimeter=0;" edge="1" parent="1" source="0dlsmf1DKYp3GTuO4sji-54" target="0dlsmf1DKYp3GTuO4sji-81">
          <mxGeometry relative="1" as="geometry" />
        </mxCell>
        <mxCell id="0dlsmf1DKYp3GTuO4sji-54" value="" style="sketch=0;points=[[0,0,0],[0.25,0,0],[0.5,0,0],[0.75,0,0],[1,0,0],[0,1,0],[0.25,1,0],[0.5,1,0],[0.75,1,0],[1,1,0],[0,0.25,0],[0,0.5,0],[0,0.75,0],[1,0.25,0],[1,0.5,0],[1,0.75,0]];outlineConnect=0;fontColor=#232F3E;fillColor=#E7157B;strokeColor=#ffffff;dashed=0;verticalLabelPosition=bottom;verticalAlign=top;align=center;html=1;fontSize=12;fontStyle=0;aspect=fixed;shape=mxgraph.aws4.resourceIcon;resIcon=mxgraph.aws4.api_gateway;" vertex="1" parent="1">
          <mxGeometry x="590" y="356" width="48" height="48" as="geometry" />
        </mxCell>
        <mxCell id="0dlsmf1DKYp3GTuO4sji-61" value="" style="sketch=0;outlineConnect=0;fontColor=#232F3E;gradientColor=none;fillColor=#01A88D;strokeColor=none;dashed=0;verticalLabelPosition=bottom;verticalAlign=top;align=center;html=1;fontSize=12;fontStyle=0;aspect=fixed;pointerEvents=1;shape=mxgraph.aws4.sagemaker_model;" vertex="1" parent="1">
          <mxGeometry x="584" y="134" width="60" height="60" as="geometry" />
        </mxCell>
        <mxCell id="0dlsmf1DKYp3GTuO4sji-62" value="Amazon Bedrock with Claude 2" style="text;html=1;strokeColor=none;fillColor=none;align=center;verticalAlign=middle;whiteSpace=wrap;rounded=0;" vertex="1" parent="1">
          <mxGeometry x="644" y="149" width="60" height="30" as="geometry" />
        </mxCell>
        <mxCell id="0dlsmf1DKYp3GTuO4sji-64" value="" style="sketch=0;outlineConnect=0;fontColor=#232F3E;gradientColor=none;fillColor=#01A88D;strokeColor=none;dashed=0;verticalLabelPosition=bottom;verticalAlign=top;align=center;html=1;fontSize=12;fontStyle=0;aspect=fixed;pointerEvents=1;shape=mxgraph.aws4.sagemaker_model;" vertex="1" parent="1">
          <mxGeometry x="584" y="230" width="62" height="62" as="geometry" />
        </mxCell>
        <mxCell id="0dlsmf1DKYp3GTuO4sji-65" value="Amazon Bedrock with Titan Embedding" style="text;html=1;strokeColor=none;fillColor=none;align=center;verticalAlign=middle;whiteSpace=wrap;rounded=0;" vertex="1" parent="1">
          <mxGeometry x="650" y="246" width="60" height="30" as="geometry" />
        </mxCell>
        <mxCell id="0dlsmf1DKYp3GTuO4sji-66" value="" style="sketch=0;points=[[0,0,0],[0.25,0,0],[0.5,0,0],[0.75,0,0],[1,0,0],[0,1,0],[0.25,1,0],[0.5,1,0],[0.75,1,0],[1,1,0],[0,0.25,0],[0,0.5,0],[0,0.75,0],[1,0.25,0],[1,0.5,0],[1,0.75,0]];outlineConnect=0;fontColor=#232F3E;fillColor=#7AA116;strokeColor=#ffffff;dashed=0;verticalLabelPosition=bottom;verticalAlign=top;align=center;html=1;fontSize=12;fontStyle=0;aspect=fixed;shape=mxgraph.aws4.resourceIcon;resIcon=mxgraph.aws4.s3;" vertex="1" parent="1">
          <mxGeometry x="280" y="92" width="48" height="48" as="geometry" />
        </mxCell>
        <mxCell id="0dlsmf1DKYp3GTuO4sji-83" style="edgeStyle=orthogonalEdgeStyle;rounded=0;orthogonalLoop=1;jettySize=auto;html=1;" edge="1" parent="1" source="0dlsmf1DKYp3GTuO4sji-69" target="0dlsmf1DKYp3GTuO4sji-81">
          <mxGeometry relative="1" as="geometry" />
        </mxCell>
        <mxCell id="0dlsmf1DKYp3GTuO4sji-85" style="edgeStyle=orthogonalEdgeStyle;rounded=0;orthogonalLoop=1;jettySize=auto;html=1;entryX=1;entryY=0.5;entryDx=0;entryDy=0;entryPerimeter=0;" edge="1" parent="1" source="0dlsmf1DKYp3GTuO4sji-69" target="0dlsmf1DKYp3GTuO4sji-26">
          <mxGeometry relative="1" as="geometry" />
        </mxCell>
        <mxCell id="0dlsmf1DKYp3GTuO4sji-69" value="" style="sketch=0;points=[[0,0,0],[0.25,0,0],[0.5,0,0],[0.75,0,0],[1,0,0],[0,1,0],[0.25,1,0],[0.5,1,0],[0.75,1,0],[1,1,0],[0,0.25,0],[0,0.5,0],[0,0.75,0],[1,0.25,0],[1,0.5,0],[1,0.75,0]];outlineConnect=0;fontColor=#232F3E;fillColor=#E7157B;strokeColor=#ffffff;dashed=0;verticalLabelPosition=bottom;verticalAlign=top;align=center;html=1;fontSize=12;fontStyle=0;aspect=fixed;shape=mxgraph.aws4.resourceIcon;resIcon=mxgraph.aws4.api_gateway;" vertex="1" parent="1">
          <mxGeometry x="590" y="407" width="48" height="48" as="geometry" />
        </mxCell>
        <mxCell id="0dlsmf1DKYp3GTuO4sji-70" value="SageMaker Studio Notebook" style="text;html=1;strokeColor=none;fillColor=none;align=center;verticalAlign=middle;whiteSpace=wrap;rounded=0;" vertex="1" parent="1">
          <mxGeometry x="-50" y="455" width="120" height="30" as="geometry" />
        </mxCell>
        <mxCell id="0dlsmf1DKYp3GTuO4sji-74" style="edgeStyle=orthogonalEdgeStyle;rounded=0;orthogonalLoop=1;jettySize=auto;html=1;" edge="1" parent="1" source="0dlsmf1DKYp3GTuO4sji-72">
          <mxGeometry relative="1" as="geometry">
            <mxPoint x="6" y="490" as="targetPoint" />
          </mxGeometry>
        </mxCell>
        <mxCell id="0dlsmf1DKYp3GTuO4sji-72" value="" style="shape=actor;whiteSpace=wrap;html=1;" vertex="1" parent="1">
          <mxGeometry x="-14" y="530" width="40" height="60" as="geometry" />
        </mxCell>
        <mxCell id="0dlsmf1DKYp3GTuO4sji-73" value="Data/ML scientist / engineer" style="text;html=1;strokeColor=none;fillColor=none;align=center;verticalAlign=middle;whiteSpace=wrap;rounded=0;" vertex="1" parent="1">
          <mxGeometry x="-45" y="600" width="110" height="30" as="geometry" />
        </mxCell>
        <mxCell id="0dlsmf1DKYp3GTuO4sji-77" value="REST API" style="text;html=1;strokeColor=none;fillColor=none;align=center;verticalAlign=middle;whiteSpace=wrap;rounded=0;" vertex="1" parent="1">
          <mxGeometry x="584" y="320" width="60" height="30" as="geometry" />
        </mxCell>
        <mxCell id="0dlsmf1DKYp3GTuO4sji-78" value="WebSocket API" style="text;html=1;strokeColor=none;fillColor=none;align=center;verticalAlign=middle;whiteSpace=wrap;rounded=0;" vertex="1" parent="1">
          <mxGeometry x="590" y="470" width="60" height="30" as="geometry" />
        </mxCell>
        <mxCell id="0dlsmf1DKYp3GTuO4sji-91" style="edgeStyle=orthogonalEdgeStyle;rounded=0;orthogonalLoop=1;jettySize=auto;html=1;entryX=1;entryY=0.5;entryDx=0;entryDy=0;entryPerimeter=0;exitX=0.5;exitY=0;exitDx=0;exitDy=0;exitPerimeter=0;" edge="1" parent="1" source="0dlsmf1DKYp3GTuO4sji-26" target="0dlsmf1DKYp3GTuO4sji-66">
          <mxGeometry relative="1" as="geometry">
            <Array as="points">
              <mxPoint x="474" y="350" />
              <mxPoint x="550" y="350" />
              <mxPoint x="550" y="116" />
            </Array>
          </mxGeometry>
        </mxCell>
        <mxCell id="0dlsmf1DKYp3GTuO4sji-93" value="&lt;div&gt;Amazon S3 for storing prompt and&amp;nbsp; search query template&lt;/div&gt;" style="text;html=1;strokeColor=none;fillColor=none;align=center;verticalAlign=middle;whiteSpace=wrap;rounded=0;" vertex="1" parent="1">
          <mxGeometry x="76.84" y="119" width="206" height="30" as="geometry" />
        </mxCell>
        <mxCell id="0dlsmf1DKYp3GTuO4sji-94" style="edgeStyle=orthogonalEdgeStyle;rounded=0;orthogonalLoop=1;jettySize=auto;html=1;" edge="1" parent="1" source="0dlsmf1DKYp3GTuO4sji-26" target="0dlsmf1DKYp3GTuO4sji-64">
          <mxGeometry relative="1" as="geometry">
            <Array as="points">
              <mxPoint x="474" y="350" />
              <mxPoint x="550" y="350" />
              <mxPoint x="550" y="261" />
            </Array>
          </mxGeometry>
        </mxCell>
        <mxCell id="0dlsmf1DKYp3GTuO4sji-95" style="edgeStyle=orthogonalEdgeStyle;rounded=0;orthogonalLoop=1;jettySize=auto;html=1;" edge="1" parent="1" source="0dlsmf1DKYp3GTuO4sji-26" target="0dlsmf1DKYp3GTuO4sji-61">
          <mxGeometry relative="1" as="geometry">
            <Array as="points">
              <mxPoint x="474" y="350" />
              <mxPoint x="550" y="350" />
              <mxPoint x="550" y="164" />
            </Array>
          </mxGeometry>
        </mxCell>
        <mxCell id="0dlsmf1DKYp3GTuO4sji-96" style="edgeStyle=orthogonalEdgeStyle;rounded=0;orthogonalLoop=1;jettySize=auto;html=1;" edge="1" parent="1" source="0dlsmf1DKYp3GTuO4sji-81" target="0dlsmf1DKYp3GTuO4sji-64">
          <mxGeometry relative="1" as="geometry">
            <Array as="points">
              <mxPoint x="440" y="432" />
              <mxPoint x="440" y="350" />
              <mxPoint x="550" y="350" />
              <mxPoint x="550" y="261" />
            </Array>
          </mxGeometry>
        </mxCell>
        <mxCell id="0dlsmf1DKYp3GTuO4sji-99" style="edgeStyle=orthogonalEdgeStyle;rounded=0;orthogonalLoop=1;jettySize=auto;html=1;" edge="1" parent="1" source="0dlsmf1DKYp3GTuO4sji-98" target="0dlsmf1DKYp3GTuO4sji-54">
          <mxGeometry relative="1" as="geometry" />
        </mxCell>
        <mxCell id="0dlsmf1DKYp3GTuO4sji-100" style="edgeStyle=orthogonalEdgeStyle;rounded=0;orthogonalLoop=1;jettySize=auto;html=1;" edge="1" parent="1" source="0dlsmf1DKYp3GTuO4sji-98" target="0dlsmf1DKYp3GTuO4sji-69">
          <mxGeometry relative="1" as="geometry" />
        </mxCell>
        <mxCell id="0dlsmf1DKYp3GTuO4sji-98" value="Your application" style="rounded=0;whiteSpace=wrap;html=1;" vertex="1" parent="1">
          <mxGeometry x="680" y="375" width="100" height="60" as="geometry" />
        </mxCell>
        <mxCell id="0dlsmf1DKYp3GTuO4sji-103" style="edgeStyle=orthogonalEdgeStyle;rounded=0;orthogonalLoop=1;jettySize=auto;html=1;" edge="1" parent="1" source="0dlsmf1DKYp3GTuO4sji-101" target="0dlsmf1DKYp3GTuO4sji-98">
          <mxGeometry relative="1" as="geometry" />
        </mxCell>
        <mxCell id="0dlsmf1DKYp3GTuO4sji-101" value="" style="shape=actor;whiteSpace=wrap;html=1;" vertex="1" parent="1">
          <mxGeometry x="710" y="530" width="40" height="60" as="geometry" />
        </mxCell>
        <mxCell id="0dlsmf1DKYp3GTuO4sji-102" value="User" style="text;html=1;strokeColor=none;fillColor=none;align=center;verticalAlign=middle;whiteSpace=wrap;rounded=0;" vertex="1" parent="1">
          <mxGeometry x="700" y="590" width="60" height="30" as="geometry" />
        </mxCell>
        <mxCell id="0dlsmf1DKYp3GTuO4sji-104" value="" style="sketch=0;outlineConnect=0;fontColor=#232F3E;gradientColor=none;fillColor=#E7157B;strokeColor=none;dashed=0;verticalLabelPosition=bottom;verticalAlign=top;align=center;html=1;fontSize=12;fontStyle=0;aspect=fixed;pointerEvents=1;shape=mxgraph.aws4.parameter_store;" vertex="1" parent="1">
          <mxGeometry x="282.84" y="40" width="42.31" height="44" as="geometry" />
        </mxCell>
        <mxCell id="0dlsmf1DKYp3GTuO4sji-105" value="&lt;div&gt;AWS SSM&amp;nbsp;&lt;/div&gt;&lt;div&gt;Parameter Store&lt;/div&gt;" style="text;html=1;strokeColor=none;fillColor=none;align=center;verticalAlign=middle;whiteSpace=wrap;rounded=0;" vertex="1" parent="1">
          <mxGeometry x="150" y="70" width="160" height="30" as="geometry" />
        </mxCell>
        <mxCell id="0dlsmf1DKYp3GTuO4sji-107" style="edgeStyle=orthogonalEdgeStyle;rounded=0;orthogonalLoop=1;jettySize=auto;html=1;" edge="1" parent="1" source="0dlsmf1DKYp3GTuO4sji-26" target="0dlsmf1DKYp3GTuO4sji-104">
          <mxGeometry relative="1" as="geometry">
            <Array as="points">
              <mxPoint x="474" y="350" />
              <mxPoint x="550" y="350" />
              <mxPoint x="550" y="62" />
            </Array>
          </mxGeometry>
        </mxCell>
        <mxCell id="0dlsmf1DKYp3GTuO4sji-108" value="" style="sketch=0;points=[[0,0,0],[0.25,0,0],[0.5,0,0],[0.75,0,0],[1,0,0],[0,1,0],[0.25,1,0],[0.5,1,0],[0.75,1,0],[1,1,0],[0,0.25,0],[0,0.5,0],[0,0.75,0],[1,0.25,0],[1,0.5,0],[1,0.75,0]];outlineConnect=0;fontColor=#232F3E;fillColor=#DD344C;strokeColor=#ffffff;dashed=0;verticalLabelPosition=bottom;verticalAlign=top;align=center;html=1;fontSize=12;fontStyle=0;aspect=fixed;shape=mxgraph.aws4.resourceIcon;resIcon=mxgraph.aws4.secrets_manager;" vertex="1" parent="1">
          <mxGeometry x="280" y="-20" width="44" height="44" as="geometry" />
        </mxCell>
        <mxCell id="0dlsmf1DKYp3GTuO4sji-109" style="edgeStyle=orthogonalEdgeStyle;rounded=0;orthogonalLoop=1;jettySize=auto;html=1;entryX=1;entryY=0.5;entryDx=0;entryDy=0;entryPerimeter=0;" edge="1" parent="1" source="0dlsmf1DKYp3GTuO4sji-26" target="0dlsmf1DKYp3GTuO4sji-108">
          <mxGeometry relative="1" as="geometry">
            <Array as="points">
              <mxPoint x="474" y="350" />
              <mxPoint x="550" y="350" />
              <mxPoint x="550" y="2" />
            </Array>
          </mxGeometry>
        </mxCell>
        <mxCell id="0dlsmf1DKYp3GTuO4sji-110" value="AWS Secrets Manager to store DB credentials" style="text;html=1;strokeColor=none;fillColor=none;align=center;verticalAlign=middle;whiteSpace=wrap;rounded=0;" vertex="1" parent="1">
          <mxGeometry x="130" y="24" width="160" height="30" as="geometry" />
        </mxCell>
        <mxCell id="0dlsmf1DKYp3GTuO4sji-116" style="edgeStyle=orthogonalEdgeStyle;rounded=0;orthogonalLoop=1;jettySize=auto;html=1;" edge="1" parent="1" source="0dlsmf1DKYp3GTuO4sji-112" target="0dlsmf1DKYp3GTuO4sji-114">
          <mxGeometry relative="1" as="geometry" />
        </mxCell>
        <mxCell id="0dlsmf1DKYp3GTuO4sji-112" value="" style="shape=actor;whiteSpace=wrap;html=1;" vertex="1" parent="1">
          <mxGeometry x="709.5" y="-6" width="40" height="60" as="geometry" />
        </mxCell>
        <mxCell id="0dlsmf1DKYp3GTuO4sji-113" value="DevOps" style="text;html=1;strokeColor=none;fillColor=none;align=center;verticalAlign=middle;whiteSpace=wrap;rounded=0;" vertex="1" parent="1">
          <mxGeometry x="650" y="9" width="60" height="30" as="geometry" />
        </mxCell>
        <mxCell id="0dlsmf1DKYp3GTuO4sji-117" style="edgeStyle=orthogonalEdgeStyle;rounded=0;orthogonalLoop=1;jettySize=auto;html=1;" edge="1" parent="1" source="0dlsmf1DKYp3GTuO4sji-114">
          <mxGeometry relative="1" as="geometry">
            <mxPoint x="610" y="105" as="targetPoint" />
          </mxGeometry>
        </mxCell>
        <mxCell id="0dlsmf1DKYp3GTuO4sji-119" style="edgeStyle=orthogonalEdgeStyle;rounded=0;orthogonalLoop=1;jettySize=auto;html=1;entryX=0.5;entryY=0;entryDx=0;entryDy=0;" edge="1" parent="1" source="0dlsmf1DKYp3GTuO4sji-114" target="0dlsmf1DKYp3GTuO4sji-98">
          <mxGeometry relative="1" as="geometry" />
        </mxCell>
        <mxCell id="0dlsmf1DKYp3GTuO4sji-114" value="AWS CDK" style="rounded=0;whiteSpace=wrap;html=1;" vertex="1" parent="1">
          <mxGeometry x="682" y="80" width="95" height="50" as="geometry" />
        </mxCell>
        <mxCell id="0dlsmf1DKYp3GTuO4sji-118" value="Deploy / redeploy this solution" style="text;html=1;strokeColor=none;fillColor=none;align=center;verticalAlign=middle;whiteSpace=wrap;rounded=0;" vertex="1" parent="1">
          <mxGeometry x="560" y="84" width="60" height="30" as="geometry" />
        </mxCell>
        <mxCell id="0dlsmf1DKYp3GTuO4sji-120" value="Integrate" style="text;html=1;strokeColor=none;fillColor=none;align=center;verticalAlign=middle;whiteSpace=wrap;rounded=0;" vertex="1" parent="1">
          <mxGeometry x="728" y="226" width="60" height="30" as="geometry" />
        </mxCell>
      </root>
    </mxGraphModel>
  </diagram>
</mxfile>
